<?xml version="1.0" standalone="no"?>
<!DOCTYPE svg PUBLIC "-//W3C//DTD SVG 20010904//EN"
 "http://www.w3.org/TR/2001/REC-SVG-20010904/DTD/svg10.dtd">
<svg version="1.0" xmlns="http://www.w3.org/2000/svg"
 width="500.000000pt" height="500.000000pt" viewBox="0 0 500.000000 500.000000"
 preserveAspectRatio="xMidYMid meet">
<metadata>
Created by potrace 1.14, written by Peter Selinger 2001-2017
</metadata>
<g transform="translate(0.000000,500.000000) scale(0.100000,-0.100000)"
fill="#000000" stroke="none">
<path d="M3640 4078 c0 -4 -6 -5 -13 -2 -12 4 -170 -16 -232 -30 -93 -21 -135
-32 -244 -68 -128 -41 -370 -151 -428 -194 l-32 -24 0 -953 c0 -523 3 -957 7
-964 8 -13 52 -14 52 -2 0 4 28 28 63 53 34 25 67 50 73 55 36 29 123 81 146
86 15 4 32 13 39 21 6 8 16 14 21 14 6 0 24 6 41 14 86 39 140 57 222 73 48 9
60 11 60 13 0 2 20 6 60 14 174 31 349 25 537 -19 35 -8 74 -16 88 -19 42 -9
186 -52 198 -60 7 -4 13 -4 13 1 1 4 3 368 4 808 2 440 6 836 10 880 12 138
12 149 2 171 -8 19 -91 54 -137 59 -9 0 -20 4 -25 7 -14 8 -152 37 -200 43
-22 2 -51 7 -65 10 -14 3 -63 7 -110 10 -47 3 -100 7 -117 8 -18 2 -33 0 -33
-5z"/>
<path d="M132 3679 c-29 -4 -54 -9 -56 -10 -1 -2 -12 -17 -24 -33 l-22 -29 0
-1244 c0 -1221 0 -1245 20 -1283 11 -21 25 -42 32 -47 7 -4 409 -8 893 -9 616
-1 894 -4 928 -12 80 -19 101 -34 202 -147 15 -16 38 -42 51 -57 21 -23 50
-39 159 -89 61 -28 166 -34 242 -15 129 34 220 97 337 234 34 41 97 70 168 78
29 4 449 7 933 8 823 1 882 2 906 19 14 9 31 28 37 41 7 17 11 397 11 1267 1
1225 1 1244 -19 1277 -11 18 -31 37 -45 42 -14 5 -88 9 -165 9 -77 0 -145 3
-150 6 -5 3 -11 1 -15 -4 -3 -6 -15 -7 -26 -2 -23 8 -78 3 -80 -8 -1 -3 -2
-404 -3 -891 l-2 -885 -33 3 c-19 1 -48 9 -65 16 -103 45 -259 100 -317 111
-34 6 -59 12 -69 15 -3 1 -9 2 -13 1 -5 -1 -36 4 -70 10 -63 11 -257 15 -312
5 -16 -3 -57 -10 -90 -15 -33 -6 -73 -13 -90 -17 -16 -3 -34 -7 -40 -8 -11 -2
-49 -16 -130 -48 -90 -35 -171 -77 -229 -118 -31 -22 -61 -40 -65 -40 -4 0
-39 -27 -76 -60 -37 -33 -72 -60 -76 -60 -5 0 -9 -7 -9 -15 0 -8 -4 -15 -9
-15 -6 0 -52 -43 -104 -96 -91 -92 -109 -102 -100 -59 2 11 5 488 7 1060 3
908 2 1044 -11 1073 -15 31 -35 42 -78 42 -11 0 -27 0 -35 0 -8 1 -33 1 -55 1
-22 0 -49 -1 -60 -1 -11 0 -53 0 -92 0 -40 -1 -77 1 -82 4 -5 4 -11 2 -13 -3
-2 -5 -24 -6 -50 -1 -27 4 -48 4 -48 1 0 -3 -19 -5 -42 -3 -24 2 -54 2 -68 1
-14 -1 -33 -1 -42 -1 -24 1 -115 2 -130 1 -7 0 -35 0 -63 0 -27 0 -61 0 -75 0
-14 0 -40 1 -57 3 -18 2 -33 0 -33 -5 0 -4 -4 -6 -9 -3 -4 3 -33 6 -62 6 -30
0 -63 0 -74 0 -11 1 -27 1 -35 1 -8 0 -40 0 -70 0 -30 0 -61 0 -67 0 -28 -2
-40 -2 -103 -2 -36 1 -72 1 -80 0 -8 0 -42 1 -75 1 -33 1 -64 1 -70 0 -5 -2
-14 -1 -20 0 -12 2 -127 2 -140 0 -5 -2 -14 -1 -20 0 -12 2 -127 2 -140 0 -5
-2 -14 -1 -20 0 -13 2 -117 2 -130 0 -5 -2 -14 -1 -20 0 -23 4 -146 2 -151 -3
-3 -3 -16 -2 -28 2 -11 4 -45 4 -74 0z m229 -238 c0 -3 1 -460 2 -1016 1 -555
6 -1016 10 -1022 6 -10 185 -13 835 -13 570 0 839 -4 867 -11 41 -11 59 -28
237 -216 83 -87 122 -108 181 -96 31 6 112 81 235 217 105 118 -8 106 978 106
473 -1 868 2 877 6 10 3 20 18 24 32 3 15 7 470 7 1013 1 543 5 991 9 996 12
12 107 11 115 -1 10 -15 11 -2136 1 -2163 -6 -15 -20 -24 -46 -29 -45 -9 -143
-11 -143 -4 0 5 -62 3 -140 -3 -19 -1 -47 1 -62 4 -17 5 -28 4 -28 -2 0 -6 -5
-7 -11 -4 -6 4 -34 7 -62 6 -107 -2 -183 -3 -232 -2 -27 1 -73 1 -102 0 -28
-1 -56 2 -62 5 -5 4 -12 2 -16 -3 -3 -6 -16 -7 -28 -3 -12 4 -38 6 -57 4 -19
-1 -82 -2 -140 -1 -58 0 -112 0 -120 0 -72 -3 -110 -2 -119 3 -5 4 -12 2 -16
-3 -3 -6 -16 -7 -28 -3 -12 4 -33 6 -47 5 -69 -7 -180 -7 -180 -1 0 4 -6 5
-12 3 -7 -2 -35 -6 -63 -9 -27 -2 -65 -9 -82 -15 -18 -5 -33 -8 -33 -5 0 19
-127 -87 -180 -151 -39 -46 -122 -112 -177 -140 -112 -56 -188 -22 -378 170
-54 53 -101 91 -140 110 -55 26 -71 29 -190 32 -71 2 -143 3 -160 3 -39 -2
-178 -2 -185 0 -15 4 -100 4 -100 0 0 -3 -42 -4 -92 -2 -51 2 -104 3 -118 3
-14 0 -72 0 -130 0 -58 0 -111 0 -117 0 -96 -3 -122 -3 -131 3 -6 3 -13 2 -17
-3 -3 -6 -16 -7 -28 -3 -12 4 -38 6 -57 4 -19 -1 -57 -2 -85 -2 -27 1 -57 1
-65 0 -8 0 -26 0 -40 1 -14 0 -40 0 -57 0 -132 -4 -197 2 -217 18 -15 12 -16
110 -16 1096 0 595 2 1084 5 1087 7 7 125 6 126 -1z m1986 -71 c2 -41 4 -483
5 -981 l3 -906 -63 49 c-89 68 -131 86 -267 113 -26 5 -757 6 -1298 2 -103 -1
-188 0 -188 3 -4 12 -6 1766 -3 1780 3 13 110 15 906 15 l903 0 2 -75z m1503
-1544 c19 -3 58 -10 85 -16 28 -6 57 -12 65 -14 8 -2 22 -6 30 -9 8 -2 42 -14
75 -26 100 -34 237 -95 239 -106 1 -6 -59 -10 -154 -12 -85 -1 -180 -2 -210
-3 -30 -1 -59 -1 -65 0 -5 1 -14 1 -20 0 -21 -4 -106 -1 -115 5 -6 3 -10 2
-10 -2 0 -5 -27 -6 -60 -3 -33 3 -67 3 -77 -1 -10 -3 -27 -3 -38 1 -11 4 -33
3 -49 -1 -16 -5 -36 -5 -45 -1 -9 4 -100 7 -204 7 -103 0 -186 4 -184 8 8 24
263 137 343 151 16 3 40 8 54 11 14 3 52 8 85 12 33 3 61 7 63 8 4 4 151 -3
192 -9z"/>
</g>
</svg>
